<svg width="24px" height="24px" viewBox="0 0 24 24" version="1.1" xmlns="http://www.w3.org/2000/svg" xmlns:xlink="http://www.w3.org/1999/xlink">
    <g id="icon/black/video_off" stroke="none" stroke-width="1" fill="currentColor" fill-rule="evenodd">
        <path d="M4.21166878,7.24543379 C3.81710652,7.33027466 3.5198,7.79339657 3.5198,8.5353 L3.5198,16.6773 C3.5198,17.4949494 3.99081445,18.1023 4.4568,18.1023 L14.5758,18.1023 C14.7179252,18.1023 14.8638324,18.0461796 14.9987934,17.9366331 L4.21166878,7.24543379 Z M16.0663913,18.9947373 C15.6526368,19.3784531 15.1354585,19.6023 14.5758,19.6023 L4.4568,19.6023 C3.06702271,19.6023 2.0198,18.2519564 2.0198,16.6773 L2.0198,8.5353 C2.0198,7.50189334 2.42167969,6.619204 3.08944395,6.13318843 L1.22214371,4.28249331 C0.927945323,3.9909111 0.925824488,3.5160421 1.21740669,3.22184371 C1.5089889,2.92764532 1.9838579,2.92552449 2.27805629,3.21710669 L19.1460563,19.9351067 C19.4402547,20.2266889 19.4423755,20.7015579 19.1507933,20.9957563 C18.8592111,21.2899547 18.3843421,21.2920755 18.0901437,21.0004933 L16.0663913,18.9947373 Z M21.6787877,6.91890673 C22.1783512,6.65288852 22.7813,7.01492353 22.7813,7.5809 L22.7813,18.0969 C22.7813,18.6830843 22.1390215,19.0426844 21.6392849,18.7362936 L15.8702849,15.1992936 C15.5171576,14.9827896 15.4064024,14.5210122 15.6229064,14.1678849 C15.8394104,13.8147576 16.3011878,13.7040024 16.6543151,13.9205064 L21.2813,16.7573318 L21.2813,8.82998249 L16.6148123,11.3148933 C16.1152488,11.5809115 15.5123,11.2188765 15.5123,10.6529 L15.5123,8.5359 C15.5123,7.71737111 15.0413414,7.1099 14.5753,7.1099 L9.2623,7.1099 C8.84808644,7.1099 8.5123,6.77411356 8.5123,6.3599 C8.5123,5.94568644 8.84808644,5.6099 9.2623,5.6099 L14.5753,5.6099 C15.9652621,5.6099 17.0123,6.96043338 17.0123,8.5359 L17.0123,9.40381751 L21.6787877,6.91890673 Z" id="Combined-Shape"  fill-rule="nonzero"></path>
    </g>
</svg>